<svg width="34" height="36" viewBox="0 0 34 36" fill="none" xmlns="http://www.w3.org/2000/svg">
<g filter="url(#filter0_d_722_163)">
<path fill-rule="evenodd" clip-rule="evenodd" d="M33 13.9566V8.60871H32.9851C32.6208 3.81966 25.6035 0 17 0C8.39648 0 1.37915 3.81966 1.01489 8.60871H1V13.9566C2.58813 17.9863 9.35803 21 17 21C24.642 21 31.4119 17.9863 33 13.9566ZM12.2941 2.65114L13.7133 4.05417L17.971 2.18346C19.3902 1.7158 19.8633 2.18349 19.8633 3.11884C19.1461 3.45471 18.5047 3.75094 17.9098 4.02569C15.5934 5.09555 13.9828 5.83945 11.3479 7.32792C10.8748 8.26327 12.7672 9.66633 14.6594 8.26327C15.5804 7.58038 18.0145 6.56512 19.9363 5.76346C20.6469 5.46709 21.2874 5.19992 21.7556 4.98953C23.6479 4.98953 27.4325 6.39256 26.9595 8.73095L24.121 11.0693L25.5402 12.4724L23.1748 13.8754L21.2825 12.4724L17.4979 14.8108C15.6056 15.2784 14.281 14.9043 14.6594 13.4077L24.121 8.26327C24.2787 7.48381 22.7018 7.04731 20.8094 7.7956L14.1864 11.0693C11.821 11.537 7.56326 9.66633 8.03636 7.32792C8.56766 6.80269 9.09896 6.5724 9.71404 6.3058C10.1943 6.09764 10.7256 5.86733 11.3479 5.45721L9.45559 4.05417C10.4017 3.11889 10.8749 2.65114 12.2941 2.65114Z" fill="#FFD200"/>
<path d="M1 20V16C2.58813 20.0298 9.35803 23.0435 17 23.0435C24.642 23.0435 31.4119 20.0298 33 16V20C31.4119 24.0298 24.642 27.0435 17 27.0435C9.35803 27.0435 2.58813 24.0298 1 20Z" fill="#FFD200"/>
<path d="M1 25.9565V21.9565C2.58813 25.9863 9.35803 29 17 29C24.642 29 31.4119 25.9863 33 21.9565V25.9565C31.4119 29.9863 24.642 33 17 33C9.35803 33 2.58813 29.9863 1 25.9565Z" fill="#FFD200"/>
</g>
<defs>
<filter id="filter0_d_722_163" x="0" y="0" width="34" height="36" filterUnits="userSpaceOnUse" color-interpolation-filters="sRGB">
<feFlood flood-opacity="0" result="BackgroundImageFix"/>
<feColorMatrix in="SourceAlpha" type="matrix" values="0 0 0 0 0 0 0 0 0 0 0 0 0 0 0 0 0 0 127 0" result="hardAlpha"/>
<feOffset dy="2"/>
<feGaussianBlur stdDeviation="0.5"/>
<feComposite in2="hardAlpha" operator="out"/>
<feColorMatrix type="matrix" values="0 0 0 0 0 0 0 0 0 0 0 0 0 0 0 0 0 0 0.2 0"/>
<feBlend mode="normal" in2="BackgroundImageFix" result="effect1_dropShadow_722_163"/>
<feBlend mode="normal" in="SourceGraphic" in2="effect1_dropShadow_722_163" result="shape"/>
</filter>
</defs>
</svg>
