<svg width="56" height="56" viewBox="0 0 56 56" fill="none" xmlns="http://www.w3.org/2000/svg">
<path d="M28.9822 0V5.00382C34.7057 5.24867 39.8873 7.58515 43.7822 11.2683L47.3189 7.73163C42.5169 3.1451 36.0862 0.249364 28.9822 0Z" fill="white"/>
<path d="M50.9609 28.9825C50.716 34.7059 48.3796 39.8875 44.6964 43.7824L48.2331 47.3191C52.8196 42.5171 55.7153 36.0864 55.9647 28.9825H50.9609Z" fill="white"/>
<path d="M26.9822 50.9611C21.5107 50.7271 16.5343 48.5814 12.7039 45.175L9.16337 48.7156C13.9052 53.0222 20.1306 55.7244 26.9822 55.965V50.9611Z" fill="white"/>
<path d="M5.00358 26.9825C5.23765 21.5109 7.38331 16.5345 10.7897 12.7041L7.24914 9.16359C2.94251 13.9054 0.240264 20.1309 -0.000244141 26.9825H5.00358Z" fill="white"/>
<path fill-rule="evenodd" clip-rule="evenodd" d="M46.9822 27.9825C46.9822 38.4759 38.4756 46.9825 27.9822 46.9825C17.4888 46.9825 8.98224 38.4759 8.98224 27.9825C8.98224 17.4891 17.4888 8.98248 27.9822 8.98248C38.4756 8.98248 46.9822 17.4891 46.9822 27.9825ZM28.9822 16.9825C28.9822 16.4302 28.5345 15.9825 27.9822 15.9825C27.4299 15.9825 26.9822 16.4302 26.9822 16.9825V25.9825H16.9822C16.4299 25.9825 15.9822 26.4302 15.9822 26.9825C15.9822 27.5348 16.4299 27.9825 16.9822 27.9825H26.9822V38.9825C26.9822 39.5348 27.4299 39.9825 27.9822 39.9825C28.5345 39.9825 28.9822 39.5348 28.9822 38.9825V27.9825H38.9822C39.5345 27.9825 39.9822 27.5348 39.9822 26.9825C39.9822 26.4302 39.5345 25.9825 38.9822 25.9825H28.9822V16.9825Z" fill="white"/>
<path d="M8.64583 7.73163C13.4478 3.1451 19.8786 0.249364 26.9825 0V5.00382C21.259 5.24867 16.0774 7.58515 12.1825 11.2683L8.64583 7.73163Z" fill="white" fill-opacity="0.5"/>
<path d="M50.9611 26.9825C50.7271 21.5109 48.5814 16.5345 45.175 12.7041L48.7156 9.16359C53.0222 13.9055 55.7244 20.1309 55.965 26.9825H50.9611Z" fill="white" fill-opacity="0.5"/>
<path d="M28.9825 50.9611C34.454 50.7271 39.4304 48.5814 43.2608 45.175L46.8014 48.7156C42.0595 53.0222 35.8341 55.7244 28.9825 55.965V50.9611Z" fill="white" fill-opacity="0.5"/>
<path d="M5.00382 28.9825C5.24866 34.7059 7.58515 39.8876 11.2683 43.7825L7.73163 47.3191C3.1451 42.5171 0.249364 36.0864 0 28.9825H5.00382Z" fill="white" fill-opacity="0.5"/>
</svg>
