<svg width="59" height="59" viewBox="0 0 59 59" fill="none" xmlns="http://www.w3.org/2000/svg">
<circle cx="30" cy="30" r="26.5" fill="black" fill-opacity="0.2" stroke="white"/>
<circle cx="30" cy="30" r="25" fill="white" fill-opacity="0.15"/>
<path d="M25.3736 9.85463C13.427 11.2848 0.0612264 32.0554 18.2439 46.9431C18.9802 47.546 20.472 48.2948 21.3997 48.7203C23.1519 49.5239 23.1484 48.9949 22.19 47.9553C18.275 43.7081 11.1641 33.6327 16.3834 24.4525C16.8857 24.4355 18.198 24.5857 19.4297 25.3225C19.6158 25.4338 19.8423 25.2927 19.6643 24.8279C18.8368 22.666 19.3538 16.1907 25.3901 10.3407C25.6357 10.1702 25.9762 9.83419 25.3736 9.85463Z" fill="white"/>
<path d="M35.2087 49.6475C47.1552 48.2173 60.521 27.4467 42.3384 12.559C41.602 11.9562 40.1103 11.2074 39.1826 10.7818C37.4304 9.97819 37.4339 10.5072 38.3922 11.5469C42.3073 15.794 49.4182 25.8694 44.1988 35.0496C43.6966 35.0666 42.3842 34.9165 41.1525 34.1796C40.9665 34.0683 40.74 34.2094 40.9179 34.6742C41.7454 36.8361 41.2285 43.3114 35.1922 49.1614C34.9466 49.332 34.6061 49.6679 35.2087 49.6475Z" fill="white"/>
</svg>
