<svg width="38" height="37" viewBox="0 0 38 37" fill="none" xmlns="http://www.w3.org/2000/svg">
<g filter="url(#filter0_d_718_145)">
<path d="M21.8851 1L8.07256 9.11905L21.8851 5.97619V1Z" fill="#FFD200"/>
<path d="M27.1719 5.97619L9.10943 9.90476H27.1719V5.97619Z" fill="#FFD200"/>
<path d="M3 10.9524H33.9091V16.1905H26.1818C24.7592 16.1905 23.6061 17.3631 23.6061 18.8095V25.619C23.6061 27.0655 24.7592 28.2381 26.1818 28.2381H33.9091V30.8571C33.9091 32.5929 32.5253 34 30.8182 34H6.09091C4.38384 34 3 32.5929 3 30.8571V10.9524Z" fill="#FFD200"/>
<path fill-rule="evenodd" clip-rule="evenodd" d="M26.697 17.7619C25.8434 17.7619 25.1515 18.4655 25.1515 19.3333V25.619C25.1515 26.4869 25.8434 27.1905 26.697 27.1905H35.4545C36.3081 27.1905 37 26.4869 37 25.619V19.3333C37 18.4655 36.3081 17.7619 35.4545 17.7619H26.697ZM29.7879 22.4762C29.7879 23.3441 29.096 24.0476 28.2424 24.0476C27.3889 24.0476 26.697 23.3441 26.697 22.4762C26.697 21.6083 27.3889 20.9048 28.2424 20.9048C29.096 20.9048 29.7879 21.6083 29.7879 22.4762Z" fill="#FFD200"/>
</g>
<defs>
<filter id="filter0_d_718_145" x="0" y="0" width="38" height="37" filterUnits="userSpaceOnUse" color-interpolation-filters="sRGB">
<feFlood flood-opacity="0" result="BackgroundImageFix"/>
<feColorMatrix in="SourceAlpha" type="matrix" values="0 0 0 0 0 0 0 0 0 0 0 0 0 0 0 0 0 0 127 0" result="hardAlpha"/>
<feOffset dx="-1" dy="1"/>
<feGaussianBlur stdDeviation="1"/>
<feComposite in2="hardAlpha" operator="out"/>
<feColorMatrix type="matrix" values="0 0 0 0 0 0 0 0 0 0 0 0 0 0 0 0 0 0 0.25 0"/>
<feBlend mode="normal" in2="BackgroundImageFix" result="effect1_dropShadow_718_145"/>
<feBlend mode="normal" in="SourceGraphic" in2="effect1_dropShadow_718_145" result="shape"/>
</filter>
</defs>
</svg>
