<svg width="56" height="56" viewBox="0 0 56 56" fill="none" xmlns="http://www.w3.org/2000/svg">
<path d="M26.9825 0C19.8786 0.249364 13.4478 3.14511 8.64583 7.73163L12.1825 11.2683C16.0774 7.58516 21.259 5.24866 26.9825 5.00382V0Z" fill="white"/>
<path d="M26.9825 0C19.8786 0.249364 13.4478 3.14511 8.64583 7.73163L12.1825 11.2683C16.0774 7.58516 21.259 5.24866 26.9825 5.00382V0Z" fill="white" fill-opacity="0.5"/>
<path d="M45.175 12.7041C48.5814 16.5345 50.7271 21.5109 50.9611 26.9825H55.9649C55.7244 20.1309 53.0222 13.9055 48.7156 9.16359L45.175 12.7041Z" fill="white"/>
<path d="M45.175 12.7041C48.5814 16.5345 50.7271 21.5109 50.9611 26.9825H55.9649C55.7244 20.1309 53.0222 13.9055 48.7156 9.16359L45.175 12.7041Z" fill="white" fill-opacity="0.5"/>
<path d="M11.2683 43.7825C7.58515 39.8876 5.24866 34.7059 5.00382 28.9825H0C0.249364 36.0864 3.1451 42.5171 7.73163 47.3191L11.2683 43.7825Z" fill="white"/>
<path d="M11.2683 43.7825C7.58515 39.8876 5.24866 34.7059 5.00382 28.9825H0C0.249364 36.0864 3.1451 42.5171 7.73163 47.3191L11.2683 43.7825Z" fill="white" fill-opacity="0.5"/>
<path d="M43.2608 45.175C39.4304 48.5814 34.454 50.7271 28.9825 50.9611V55.965C35.8341 55.7244 42.0595 53.0222 46.8014 48.7156L43.2608 45.175Z" fill="white"/>
<path fill-rule="evenodd" clip-rule="evenodd" d="M27.9825 46.9825C38.4759 46.9825 46.9825 38.4759 46.9825 27.9825C46.9825 17.4891 38.4759 8.98248 27.9825 8.98248C17.4891 8.98248 8.98248 17.4891 8.98248 27.9825C8.98248 38.4759 17.4891 46.9825 27.9825 46.9825ZM16.9825 25.9825C16.4302 25.9825 15.9825 26.4302 15.9825 26.9825C15.9825 27.5348 16.4302 27.9825 16.9825 27.9825H38.9825C39.5348 27.9825 39.9825 27.5348 39.9825 26.9825C39.9825 26.4302 39.5348 25.9825 38.9825 25.9825H16.9825Z" fill="white"/>
<path fill-rule="evenodd" clip-rule="evenodd" d="M27.9825 46.9825C38.4759 46.9825 46.9825 38.4759 46.9825 27.9825C46.9825 17.4891 38.4759 8.98248 27.9825 8.98248C17.4891 8.98248 8.98248 17.4891 8.98248 27.9825C8.98248 38.4759 17.4891 46.9825 27.9825 46.9825ZM16.9825 25.9825C16.4302 25.9825 15.9825 26.4302 15.9825 26.9825C15.9825 27.5348 16.4302 27.9825 16.9825 27.9825H38.9825C39.5348 27.9825 39.9825 27.5348 39.9825 26.9825C39.9825 26.4302 39.5348 25.9825 38.9825 25.9825H16.9825Z" fill="white" fill-opacity="0.5"/>
<path d="M28.9825 0V5.00382C34.706 5.24866 39.8876 7.58516 43.7825 11.2683L47.3192 7.73163C42.5172 3.1451 36.0865 0.249364 28.9825 0Z" fill="white" fill-opacity="0.5"/>
<path d="M50.9612 28.9825C50.7163 34.7059 48.3799 39.8875 44.6967 43.7824L48.2334 47.3191C52.8199 42.5171 55.7156 36.0864 55.965 28.9825H50.9612Z" fill="white" fill-opacity="0.5"/>
<path d="M26.9825 50.9611C21.511 50.7271 16.5346 48.5814 12.7042 45.175L9.16367 48.7156C13.9055 53.0222 20.1309 55.7244 26.9825 55.965V50.9611Z" fill="white" fill-opacity="0.5"/>
<path d="M5.00388 26.9825C5.23795 21.5109 7.38361 16.5345 10.79 12.7041L7.24945 9.16359C2.94282 13.9055 0.240569 20.1309 6.10352e-05 26.9825H5.00388Z" fill="white" fill-opacity="0.5"/>
</svg>
