<svg width="45" height="35" viewBox="0 0 45 35" fill="none" xmlns="http://www.w3.org/2000/svg">
<path d="M10 0H15V3H11C6.58167 3 3 6.58172 3 11V24C3 28.4183 6.58167 32 11 32H23V35H10C4.47717 35 0 30.5228 0 25V10C0 4.47715 4.47717 0 10 0Z" fill="white"/>
<path d="M29 35H35C40.5228 35 45 30.5229 45 25V10C45 4.47715 40.5228 0 35 0H22V3H34C38.4183 3 42 6.58172 42 11V24C42 28.4183 38.4183 32 34 32H29V35Z" fill="white"/>
<path d="M26.8572 12.0001L18.6921 3.68653L20.5 14L20.0705 14.1159L18.2847 14.5754L31.0387 27.0414L32.1255 25.9295L24.2898 18.2707L30.5 16.2929L26.8572 12.0001Z" fill="white"/>
<path d="M17.4409 13.7507L19.2241 13.3195L12.7587 7L11.6719 8.11195L17.4409 13.7507Z" fill="white"/>
<path d="M17.1438 14.9053L12 16.2929L26 31.5L22.3036 19.9485L17.1438 14.9053Z" fill="white"/>
</svg>
