<svg width="42" height="41" viewBox="0 0 42 41" fill="none" xmlns="http://www.w3.org/2000/svg">
<path d="M5.50025 0.318311L0.500248 5.31831C0.000248432 5.81824 0.000248432 6.48498 0.500248 6.81831L5.50025 11.3182C6.00025 11.8182 8.50025 11.3182 7.00025 8.81831L5.50025 7.31824H34.0002C37.6002 7.71824 38.5002 9.81831 38.5002 12.8182V27.8182C39.5002 28.8183 40.5002 28.8182 41.5002 27.8182V12.8182C41.5002 6.01824 36.6669 4.48491 34.0002 4.31824H5.50025L7.00025 2.81831C8.50025 0.818245 7.00025 -0.681698 5.50025 0.318311Z" fill="white"/>
<path d="M26.052 19.0964C26.7071 19.4835 26.7071 20.4312 26.052 20.8182L18.0177 25.5658C17.3511 25.9597 16.509 25.4792 16.509 24.7049V15.2098C16.509 14.4355 17.3511 13.9549 18.0177 14.3488L26.052 19.0964Z" fill="white"/>
<path d="M36 39.8182L41 34.8182C41.5 34.3183 41.5 33.6516 41 33.3182L36 28.8183C35.5 28.3183 33 28.8183 34.5 31.3182L36 32.8183H7.5C3.9 32.4183 3 30.3182 3 27.3183V12.3183C2 11.3182 1 11.3183 0 12.3183V27.3183C0 34.1183 4.83333 35.6516 7.5 35.8183H36L34.5 37.3182C33 39.3183 34.5 40.8183 36 39.8182Z" fill="white"/>
</svg>
