<svg width="35" height="35" viewBox="0 0 35 35" fill="none" xmlns="http://www.w3.org/2000/svg">
<circle cx="17.5" cy="17.5" r="17.5" fill="black" fill-opacity="0.2"/>
<circle cx="17.5" cy="17.5" r="15.4091" fill="black" fill-opacity="0.2" stroke="white"/>
<path d="M25.3352 16.6231H13.1709L18.4853 11.3087C18.91 10.884 18.91 10.187 18.4853 9.76231C18.3846 9.66136 18.2649 9.58126 18.1332 9.52661C18.0014 9.47197 17.8602 9.44384 17.7176 9.44384C17.5749 9.44384 17.4337 9.47197 17.302 9.52661C17.1702 9.58126 17.0506 9.66136 16.9498 9.76231L9.7732 16.9389C9.67224 17.0397 9.59215 17.1593 9.5375 17.2911C9.48285 17.4228 9.45472 17.564 9.45472 17.7067C9.45472 17.8493 9.48285 17.9905 9.5375 18.1223C9.59215 18.254 9.67224 18.3737 9.7732 18.4744L16.9498 25.651C17.0506 25.7519 17.1703 25.8318 17.3021 25.8864C17.4338 25.941 17.575 25.9691 17.7176 25.9691C17.8602 25.9691 18.0013 25.941 18.1331 25.8864C18.2648 25.8318 18.3845 25.7519 18.4853 25.651C18.5861 25.5502 18.6661 25.4305 18.7207 25.2988C18.7753 25.1671 18.8033 25.0259 18.8033 24.8833C18.8033 24.7407 18.7753 24.5995 18.7207 24.4678C18.6661 24.336 18.5861 24.2164 18.4853 24.1155L13.1709 18.8011H25.3352C25.9342 18.8011 26.4242 18.3111 26.4242 17.7121C26.4242 17.1132 25.9342 16.6231 25.3352 16.6231Z" fill="white"/>
</svg>
