<svg width="71" height="72" viewBox="0 0 71 72" fill="none" xmlns="http://www.w3.org/2000/svg">
<path d="M0.999939 21.628H12.9999L30.9999 1.68613C31.9105 0.655728 32.3184 0.894618 32.9999 1.68613C33.3139 1.99833 33.4438 2.20339 33.4999 2.68333V69.4878C33.424 69.9408 33.3589 70.1939 32.9999 70.4848C32.641 70.7758 31.9999 71.4819 30.9999 70.4848C29.9999 69.4878 29.9999 69.4878 29.9999 69.4878L12.9999 50.5429H0.999939V21.628Z" fill="#FFD200"/>
<path d="M53.0859 56.543C68.8023 42.143 59.6344 24.8763 53.0859 18.043C52.5822 15.043 56.1084 13.543 58.1233 14.543C75.0486 36.143 64.5038 54.2097 57.1158 60.543C53.0859 61.343 52.5822 58.2097 53.0859 56.543Z" fill="#FFD200"/>
<path d="M41.5 50.5429C51.3768 36.4894 46.82 31.5345 41.5 23.0429C41.8057 20.8025 42.6287 20.4888 44.5224 20.5429C57.1344 34.6148 49.8678 47.1891 44.5224 53.5429C42.5562 53.4098 41.7028 52.9693 41.5 50.5429Z" fill="#FFD200"/>
<path d="M0.999939 21.628H12.9999L30.9999 1.68613C31.9105 0.655728 32.3184 0.894618 32.9999 1.68613C33.3139 1.99833 33.4438 2.20339 33.4999 2.68333V69.4878C33.424 69.9408 33.3589 70.1939 32.9999 70.4848C32.641 70.7758 31.9999 71.4819 30.9999 70.4848C29.9999 69.4878 29.9999 69.4878 29.9999 69.4878L12.9999 50.5429H0.999939V21.628Z" stroke="#FFD200"/>
<path d="M53.0859 56.543C68.8023 42.143 59.6344 24.8763 53.0859 18.043C52.5822 15.043 56.1084 13.543 58.1233 14.543C75.0486 36.143 64.5038 54.2097 57.1158 60.543C53.0859 61.343 52.5822 58.2097 53.0859 56.543Z" stroke="#FFD200"/>
<path d="M41.5 50.5429C51.3768 36.4894 46.82 31.5345 41.5 23.0429C41.8057 20.8025 42.6287 20.4888 44.5224 20.5429C57.1344 34.6148 49.8678 47.1891 44.5224 53.5429C42.5562 53.4098 41.7028 52.9693 41.5 50.5429Z" stroke="#FFD200"/>
</svg>
