<svg width="71" height="72" viewBox="0 0 71 72" fill="none" xmlns="http://www.w3.org/2000/svg">
<path d="M1 21.628H13L31 1.68613C31.9106 0.655728 32.3185 0.894618 33 1.68613C33.314 1.99833 33.4439 2.20339 33.5 2.68333V69.4878C33.4241 69.9408 33.3589 70.1939 33 70.4848C32.6411 70.7758 32 71.4819 31 70.4848C30 69.4878 30 69.4878 30 69.4878L13 50.5429H1V21.628Z" fill="#FFD200"/>
<path d="M46.2571 21.628H40.2571L51.2571 36.088L40.2571 50.5429H46.2571L54.2571 40.5749L62.2571 50.5429H67.2571L57.2571 36.088L68.2571 21.628H62.2571L54.2571 31.6011L46.2571 21.628Z" fill="#FFD200"/>
<path d="M1 21.628H13L31 1.68613C31.9106 0.655728 32.3185 0.894618 33 1.68613C33.314 1.99833 33.4439 2.20339 33.5 2.68333V69.4878C33.4241 69.9408 33.3589 70.1939 33 70.4848C32.6411 70.7758 32 71.4819 31 70.4848C30 69.4878 30 69.4878 30 69.4878L13 50.5429H1V21.628Z" stroke="#FFD200"/>
<path d="M46.2571 21.628H40.2571L51.2571 36.088L40.2571 50.5429H46.2571L54.2571 40.5749L62.2571 50.5429H67.2571L57.2571 36.088L68.2571 21.628H62.2571L54.2571 31.6011L46.2571 21.628Z" stroke="#FFD200"/>
</svg>
